<?xml version="1.0" encoding="UTF-8" standalone="no"?>
<svg
   xmlns:dc="http://purl.org/dc/elements/1.1/"
   xmlns:cc="http://creativecommons.org/ns#"
   xmlns:rdf="http://www.w3.org/1999/02/22-rdf-syntax-ns#"
   xmlns="http://www.w3.org/2000/svg"
   viewBox="0 0 986.66669 306.66666"
   height="306.66666"
   width="986.66669"
   xml:space="preserve"
   id="svg2"
   version="1.1"><metadata
     id="metadata8"><rdf:RDF><cc:Work
         rdf:about=""><dc:format>image/svg+xml</dc:format><dc:type
           rdf:resource="http://purl.org/dc/dcmitype/StillImage" /></cc:Work></rdf:RDF></metadata><defs
     id="defs6" /><g
     transform="matrix(1.3333333,0,0,-1.3333333,0,306.66667)"
     id="g10"><g
       transform="scale(0.1)"
       id="g12"><path
         id="path14"
         style="fill:#0e88d3;fill-opacity:1;fill-rule:nonzero;stroke:none"
         d="m 970.563,1261.32 h 351.297 c -9.96,-102.66 -41.17,-176.66 -93.63,-221.66 -45.16,-39.668 -109.57,-67 -192.59,-82.332 -83.007,-15.336 -207.523,-23 -373.542,-23 -136.805,0 -241.727,6.664 -315.11,19.996 -73.383,13.336 -131.488,36.336 -174.32,69.006 -45.16,34.33 -76.3711,80.33 -93.3047,137.99 -16.9336,57.67 -25.2383,146.34 -25.2383,266 0,90 3.3242,157.34 9.6328,202.67 6.6406,45.33 18.9258,86.01 37.1872,122.67 37.524,75.34 105.59,124.66 204.207,147.33 84.336,19.67 215.164,29.34 393.137,29.34 156.723,0 267.293,-5.67 331.711,-16.67 113.89,-19.33 192.58,-62.34 235.41,-128.33 42.84,-66 64.09,-177.34 64.09,-333.67 0,-15 -0.66,-46.67 -1.99,-95.67 H 406.426 c 0,-48 2.988,-82.66 9.297,-103.33 5.976,-20.67 18.261,-38 36.187,-51.67 35.199,-26 114.227,-39 237.414,-39 78.696,0 137.465,3 176.645,9.33 39.183,6 66.078,16.34 80.355,30.67 11.621,11.67 19.59,31.67 24.239,60.33 z m 4.98,287 c -1.324,37 -3.984,62.67 -7.305,76.67 -3.648,14.01 -10.625,26.67 -20.914,37.67 -30.551,31.33 -111.902,47 -244.386,47 -118.54,0 -197.235,-10.33 -235.418,-31.33 -38.188,-20.67 -58.442,-64 -61.094,-130.01 h 569.117" /><path
         id="path16"
         style="fill:#0e88d3;fill-opacity:1;fill-rule:nonzero;stroke:none"
         d="m 1349.75,1905 h 474.82 l 177.98,-252 h 14.61 l 189.59,252 h 454.24 l -379.2,-438.67 418.38,-507.67 H 2246.6 L 2022.8,1279 h -17.26 L 1773.11,958.66 h -435.97 l 404.75,489.33 -392.14,457.01" /><path
         id="path18"
         style="fill:#0e88d3;fill-opacity:1;fill-rule:nonzero;stroke:none"
         d="m 3627.89,1261.32 h 351.31 c -9.97,-102.66 -41.18,-176.66 -93.64,-221.66 -45.16,-39.668 -109.57,-67 -192.58,-82.332 -83.02,-15.336 -207.53,-23 -373.55,-23 -136.8,0 -241.73,6.664 -315.11,19.996 -73.38,13.336 -131.49,36.336 -174.32,69.006 -45.16,34.33 -76.37,80.33 -93.31,137.99 -16.93,57.67 -25.23,146.34 -25.23,266 0,90 3.32,157.34 9.63,202.67 6.64,45.33 18.92,86.01 37.19,122.67 37.52,75.34 105.58,124.66 204.2,147.33 84.34,19.67 215.17,29.34 393.14,29.34 156.72,0 267.29,-5.67 331.71,-16.67 113.89,-19.33 192.58,-62.34 235.42,-128.33 42.83,-66 64.08,-177.34 64.08,-333.67 0,-15 -0.66,-46.67 -1.99,-95.67 h -921.09 c 0,-48 3,-82.66 9.3,-103.33 5.98,-20.67 18.26,-38 36.19,-51.67 35.2,-26 114.22,-39 237.42,-39 78.69,0 137.46,3 176.64,9.33 39.18,6 66.08,16.34 80.36,30.67 11.62,11.67 19.59,31.67 24.23,60.33 z m 4.99,287 c -1.33,37 -3.99,62.67 -7.31,76.67 -3.65,14.01 -10.62,26.67 -20.92,37.67 -30.54,31.33 -111.9,47 -244.38,47 -118.54,0 -197.23,-10.33 -235.42,-31.33 -38.19,-20.67 -58.44,-64 -61.1,-130.01 h 569.13" /><path
         id="path20"
         style="fill:#0e88d3;fill-opacity:1;fill-rule:nonzero;stroke:none"
         d="m 5419.59,2291.66 v -1333 h -331.71 v 124 h -19.59 c -24.57,-43 -51.8,-73.34 -81.68,-90.668 -65.08,-38.332 -176.65,-57.664 -334.7,-57.664 -127.18,0 -225.12,7.332 -293.86,22.328 -68.73,15.004 -123.19,41.004 -163.37,78.334 -39.18,35 -65.74,81.67 -80.35,139.67 -14.61,57.67 -21.91,145.33 -21.91,262.67 0,81.33 3.98,146.66 12.28,196 7.97,49.66 21.92,93.33 41.18,130.99 37.19,70.34 101.93,116.67 194.57,139.67 68.07,17 173.33,25.34 315.44,25.34 123.86,0 212.51,-10.34 265.97,-30.67 53.46,-20.66 96.96,-60.67 130.82,-120.67 h 14.61 v 513.67 z m -648.81,-629 c -138.8,0 -228.12,-13.33 -267.29,-40 -39.19,-26.67 -58.78,-87 -58.78,-180.67 0,-71 5.98,-121.33 17.6,-151.66 11.62,-30.34 33.21,-51.67 65.08,-64 42.17,-17 116.22,-25.34 221.81,-25.34 131.16,0 218.15,13.67 261.65,41 21.58,13 36.52,33.67 45.15,62.34 8.97,28.67 13.28,70.66 13.28,126 0,64.33 -5.97,111.66 -17.59,141.67 -11.63,29.66 -32.21,50.99 -62.1,63.32 -42.83,18.34 -115.88,27.34 -218.81,27.34" /><path
         id="path22"
         style="fill:#0e88d3;fill-opacity:1;fill-rule:nonzero;stroke:none"
         d="m 5578.97,1905 h 352.3 V 958.66 h -352.3 z m 0,386.66 h 352.3 v -265.67 h -352.3 v 265.67" /><path
         id="path24"
         style="fill:#0e88d3;fill-opacity:1;fill-rule:nonzero;stroke:none"
         d="m 6731.82,1929.33 c 160.04,0 279.91,-6.33 359.6,-19 79.36,-12.67 141.45,-35.34 186.28,-68 46.48,-33.67 78.36,-78.01 95.29,-132.67 16.94,-54.67 25.24,-141.33 25.24,-259.67 0,-88 -2.33,-154 -7.31,-197.67 -4.98,-43.99 -13.61,-83.66 -26.89,-118.66 -33.54,-88.67 -101.94,-145 -205.2,-169 -85.67,-20.332 -227.45,-30.332 -426.01,-30.332 -175.66,0 -301.5,6.332 -377.53,19 -75.71,12.664 -136.48,37.996 -181.96,75.662 -43.5,36 -72.39,82.67 -87,140.67 -14.61,58 -21.92,155.67 -21.92,293 0,78 3,137.33 9.3,178 5.98,40.67 17.93,78 35.53,112 35.53,69 95.96,115.33 180.96,139.67 85.01,24 232.1,36.33 441.62,37 z m 2.99,-266.67 c -116.88,0 -195.57,-9 -236.42,-27.34 -29.88,-13.66 -50.8,-36.32 -63.09,-68.32 -12.28,-32.01 -18.59,-79.01 -18.59,-141.67 0,-61.67 5.32,-106.01 15.61,-132.67 10.29,-26.67 30.22,-46.67 59.43,-60.33 44.5,-21.01 125.18,-31.34 242.06,-31.34 133.48,0 218.82,14 256.34,42.01 37.19,27.99 55.78,91.66 55.78,191.33 0,62.33 -5.97,108 -17.59,136.66 -11.63,28.67 -32.55,49.33 -63.09,62.34 -44.83,19.67 -121.53,29.33 -230.44,29.33" /><path
         id="path26"
         style="fill:#50696d;fill-opacity:1;fill-rule:nonzero;stroke:none"
         d="m 161.641,291.98 c 3.828,-42.242 17.574,-74.281 41.242,-96.121 23.664,-21.839 55.82,-32.761 96.461,-32.761 16.738,0 33.469,1.199 50.207,3.601 16.738,2.403 35.383,6.239 55.945,11.52 l 8.606,-34.559 c -20.086,-6.242 -39.926,-10.801 -59.528,-13.68 -19.609,-2.882 -37.777,-4.32 -54.511,-4.32 -28.211,0 -53.551,4.559 -76.024,13.68 -22.473,9.117 -41.476,21.719 -57.019,37.801 -15.54,16.078 -27.493,35.16 -35.86,57.238 -8.363,22.078 -12.551,46.32 -12.551,72.719 0,24.48 3.586,47.64 10.758,69.48 7.172,21.844 17.692,41.039 31.555,57.602 13.867,16.558 30.844,29.761 50.922,39.597 20.086,9.84 42.797,14.762 68.136,14.762 25.344,0 47.696,-4.922 67.059,-14.762 19.367,-9.836 35.504,-23.039 48.414,-39.597 12.91,-16.563 22.594,-35.758 29.047,-57.602 6.453,-21.84 9.68,-45 9.68,-69.48 V 291.98 Z m 229.507,36 c -2.867,37.438 -13.507,67.321 -31.914,89.637 -18.41,22.321 -44.824,33.481 -79.254,33.481 -34.425,0 -61.796,-11.16 -82.117,-33.481 -20.324,-22.316 -32.394,-52.199 -36.222,-89.637 h 229.507" /><path
         id="path28"
         style="fill:#50696d;fill-opacity:1;fill-rule:nonzero;stroke:none"
         d="m 523.832,307.098 v 40.32 h 174.281 v -40.32 H 523.832" /><path
         id="path30"
         style="fill:#50696d;fill-opacity:1;fill-rule:nonzero;stroke:none"
         d="m 1109.08,307.098 c 0,-21.598 -2.87,-43.2 -8.61,-64.797 -5.74,-21.602 -14.82,-41.043 -27.25,-58.321 -12.43,-17.281 -28.33,-31.32 -47.7,-42.121 -19.36,-10.8 -42.672,-16.199 -69.926,-16.199 -25.817,0 -48.41,6.117 -67.778,18.36 -19.363,12.238 -35.023,29.636 -46.972,52.199 v -64.801 h -42.317 v 479.52 h 42.317 V 417.98 c 11.949,22.559 27.609,39.958 46.972,52.2 19.368,12.238 41.961,18.359 67.778,18.359 27.254,0 50.686,-5.398 70.286,-16.199 19.61,-10.801 35.5,-24.84 47.7,-42.121 12.19,-17.281 21.15,-36.719 26.89,-58.321 5.74,-21.597 8.61,-43.199 8.61,-64.8 z m -41.6,0 c 0,19.683 -2.39,38.281 -7.17,55.8 -4.78,17.52 -11.95,32.762 -21.52,45.719 -9.56,12.961 -21.4,23.281 -35.5,30.961 -14.106,7.68 -30.481,11.52 -49.13,11.52 -18.648,0 -35.023,-3.84 -49.129,-11.52 -14.105,-7.68 -25.937,-18.117 -35.5,-31.32 -9.562,-13.199 -16.738,-28.438 -21.519,-45.719 -4.778,-17.281 -7.168,-35.758 -7.168,-55.441 0,-19.2 2.39,-37.559 7.168,-55.078 4.781,-17.52 11.957,-32.879 21.519,-46.082 9.563,-13.2 21.395,-23.641 35.5,-31.321 14.106,-7.676 30.481,-11.519 49.129,-11.519 18.649,0 35.024,3.843 49.13,11.519 14.1,7.68 25.94,18 35.5,30.961 9.57,12.961 16.74,28.199 21.52,45.723 4.78,17.519 7.17,36.117 7.17,55.797" /><path
         id="path32"
         style="fill:#50696d;fill-opacity:1;fill-rule:nonzero;stroke:none"
         d="m 1441.14,131.418 v 66.242 c -12.43,-21.601 -29.16,-39 -50.2,-52.203 -21.04,-13.199 -45.18,-19.797 -72.44,-19.797 -39.68,0 -69.57,11.278 -89.65,33.84 -20.08,22.559 -30.12,52.559 -30.12,90 v 232.559 h 42.32 V 253.098 c 0,-30.239 6.57,-52.559 19.72,-66.957 13.15,-14.403 34.31,-21.602 63.47,-21.602 14.35,0 28.57,3.121 42.67,9.359 14.11,6.239 26.66,15.364 37.66,27.36 11,12 19.84,26.64 26.54,43.922 6.69,17.281 10.03,36.961 10.03,59.039 v 177.84 h 41.61 V 131.418 h -41.61" /><path
         id="path34"
         style="fill:#50696d;fill-opacity:1;fill-rule:nonzero;stroke:none"
         d="m 1837.05,218.539 c 0,-27.84 -11.72,-50.281 -35.15,-67.32 -23.42,-17.039 -55.94,-25.559 -97.54,-25.559 -21.04,0 -43.03,2.996 -65.98,9 -22.95,6 -42.56,13.559 -58.81,22.68 l 11.48,32.398 c 17.21,-8.16 35.25,-14.64 54.14,-19.437 18.89,-4.801 38.13,-7.203 57.74,-7.203 27.73,0 50.09,4.562 67.06,13.679 16.97,9.121 25.46,23.52 25.46,43.203 0,8.161 -1.32,15.118 -3.95,20.879 -2.62,5.758 -7.89,11.278 -15.77,16.559 -7.89,5.281 -18.89,11.043 -33,17.281 -14.1,6.239 -32.39,13.922 -54.86,23.039 -20.08,8.16 -36.34,16.082 -48.77,23.762 -12.44,7.68 -22.24,15.84 -29.41,24.48 -7.17,8.637 -12.07,17.758 -14.7,27.36 -2.63,9.601 -3.94,20.398 -3.94,32.398 0,14.403 3.22,26.762 9.68,37.082 6.45,10.321 15.18,18.836 26.17,25.559 11,6.723 24.03,11.762 39.09,15.121 15.06,3.359 31.2,5.039 48.41,5.039 16.74,0 33.83,-1.199 51.28,-3.601 17.46,-2.399 36.22,-6.719 56.31,-12.958 l -6.46,-33.839 c -15.3,3.839 -31.32,6.957 -48.05,9.359 -16.74,2.398 -33.71,3.598 -50.93,3.598 -30.12,0 -51.63,-3.957 -64.54,-11.879 -12.91,-7.918 -19.37,-20.52 -19.37,-37.801 0,-7.199 1.08,-13.68 3.23,-19.438 2.15,-5.761 6.22,-11.402 12.19,-16.921 5.98,-5.52 14.35,-11.039 25.1,-16.559 10.76,-5.52 24.51,-11.641 41.24,-18.359 24.39,-10.082 44.59,-19.2 60.61,-27.364 16.02,-8.16 28.57,-16.316 37.65,-24.476 9.09,-8.164 15.42,-16.922 19.01,-26.281 3.58,-9.36 5.38,-20.52 5.38,-33.481" /><path
         id="path36"
         style="fill:#50696d;fill-opacity:1;fill-rule:nonzero;stroke:none"
         d="m 1930.29,131.418 v 350.641 h 41.59 V 131.418 Z m 0,408.961 v 70.559 h 41.59 v -70.559 h -41.59" /><path
         id="path38"
         style="fill:#50696d;fill-opacity:1;fill-rule:nonzero;stroke:none"
         d="m 2336.22,131.418 v 229.68 c 0,30.242 -6.69,52.441 -20.08,66.601 -13.39,14.16 -34.67,21.239 -63.83,21.239 -14.35,0 -28.57,-3.122 -42.67,-9.36 -14.11,-6.238 -26.54,-15.359 -37.3,-27.359 -10.76,-12 -19.48,-26.641 -26.18,-43.918 -6.69,-17.281 -10.04,-36.961 -10.04,-59.043 v -177.84 h -42.32 v 350.641 h 42.32 v -65.52 c 12.43,21.602 29.05,39 49.84,52.199 20.81,13.203 44.83,19.801 72.09,19.801 39.68,0 69.57,-11.402 89.65,-34.199 20.08,-22.801 30.12,-52.922 30.12,-90.36 V 131.418 h -41.6" /><path
         id="path40"
         style="fill:#50696d;fill-opacity:1;fill-rule:nonzero;stroke:none"
         d="m 2512.66,291.98 c 3.82,-42.242 17.57,-74.281 41.24,-96.121 23.66,-21.839 55.82,-32.761 96.46,-32.761 16.74,0 33.47,1.199 50.21,3.601 16.73,2.403 35.38,6.239 55.94,11.52 l 8.61,-34.559 c -20.09,-6.242 -39.93,-10.801 -59.53,-13.68 -19.61,-2.882 -37.78,-4.32 -54.51,-4.32 -28.21,0 -53.55,4.559 -76.03,13.68 -22.47,9.117 -41.47,21.719 -57.01,37.801 -15.54,16.078 -27.5,35.16 -35.86,57.238 -8.37,22.078 -12.55,46.32 -12.55,72.719 0,24.48 3.58,47.64 10.75,69.48 7.17,21.844 17.69,41.039 31.56,57.602 13.86,16.558 30.84,29.761 50.92,39.597 20.09,9.84 42.8,14.762 68.14,14.762 25.34,0 47.69,-4.922 67.05,-14.762 19.37,-9.836 35.51,-23.039 48.42,-39.597 12.91,-16.563 22.59,-35.758 29.05,-57.602 6.45,-21.84 9.68,-45 9.68,-69.48 V 291.98 Z m 229.5,36 c -2.87,37.438 -13.5,67.321 -31.91,89.637 -18.41,22.321 -44.82,33.481 -79.25,33.481 -34.43,0 -61.8,-11.16 -82.12,-33.481 -20.33,-22.316 -32.4,-52.199 -36.22,-89.637 h 229.5" /><path
         id="path42"
         style="fill:#50696d;fill-opacity:1;fill-rule:nonzero;stroke:none"
         d="m 3114.4,218.539 c 0,-27.84 -11.72,-50.281 -35.15,-67.32 -23.43,-17.039 -55.94,-25.559 -97.54,-25.559 -21.03,0 -43.03,2.996 -65.98,9 -22.95,6 -42.55,13.559 -58.81,22.68 l 11.47,32.398 c 17.22,-8.16 35.27,-14.64 54.15,-19.437 18.89,-4.801 38.14,-7.203 57.74,-7.203 27.73,0 50.08,4.562 67.06,13.679 16.97,9.121 25.46,23.52 25.46,43.203 0,8.161 -1.32,15.118 -3.94,20.879 -2.63,5.758 -7.9,11.278 -15.79,16.559 -7.88,5.281 -18.88,11.043 -32.98,17.281 -14.11,6.239 -32.4,13.922 -54.87,23.039 -20.08,8.16 -36.34,16.082 -48.77,23.762 -12.43,7.68 -22.24,15.84 -29.41,24.48 -7.17,8.637 -12.07,17.758 -14.7,27.36 -2.63,9.601 -3.95,20.398 -3.95,32.398 0,14.403 3.23,26.762 9.69,37.082 6.46,10.321 15.18,18.836 26.17,25.559 11,6.723 24.03,11.762 39.09,15.121 15.07,3.359 31.2,5.039 48.41,5.039 16.74,0 33.83,-1.199 51.29,-3.601 17.45,-2.399 36.21,-6.719 56.3,-12.958 l -6.46,-33.839 c -15.3,3.839 -31.31,6.957 -48.05,9.359 -16.74,2.398 -33.71,3.598 -50.92,3.598 -30.12,0 -51.64,-3.957 -64.55,-11.879 -12.91,-7.918 -19.36,-20.52 -19.36,-37.801 0,-7.199 1.07,-13.68 3.22,-19.438 2.15,-5.761 6.22,-11.402 12.19,-16.921 5.98,-5.52 14.35,-11.039 25.11,-16.559 10.75,-5.52 24.5,-11.641 41.23,-18.359 24.39,-10.082 44.59,-19.2 60.61,-27.364 16.02,-8.16 28.57,-16.316 37.66,-24.476 9.08,-8.164 15.41,-16.922 19,-26.281 3.59,-9.36 5.38,-20.52 5.38,-33.481" /><path
         id="path44"
         style="fill:#50696d;fill-opacity:1;fill-rule:nonzero;stroke:none"
         d="m 3440.01,218.539 c 0,-27.84 -11.71,-50.281 -35.14,-67.32 -23.43,-17.039 -55.94,-25.559 -97.54,-25.559 -21.04,0 -43.04,2.996 -65.99,9 -22.95,6 -42.55,13.559 -58.81,22.68 l 11.48,32.398 c 17.21,-8.16 35.26,-14.64 54.15,-19.437 18.88,-4.801 38.13,-7.203 57.73,-7.203 27.74,0 50.09,4.562 67.06,13.679 16.98,9.121 25.46,23.52 25.46,43.203 0,8.161 -1.31,15.118 -3.94,20.879 -2.63,5.758 -7.89,11.278 -15.78,16.559 -7.89,5.281 -18.89,11.043 -32.99,17.281 -14.11,6.239 -32.4,13.922 -54.87,23.039 -20.08,8.16 -36.33,16.082 -48.77,23.762 -12.43,7.68 -22.23,15.84 -29.4,24.48 -7.18,8.637 -12.08,17.758 -14.71,27.36 -2.63,9.601 -3.94,20.398 -3.94,32.398 0,14.403 3.22,26.762 9.68,37.082 6.46,10.321 15.18,18.836 26.18,25.559 11,6.723 24.02,11.762 39.09,15.121 15.06,3.359 31.2,5.039 48.41,5.039 16.73,0 33.83,-1.199 51.28,-3.601 17.45,-2.399 36.22,-6.719 56.3,-12.958 l -6.45,-33.839 c -15.3,3.839 -31.32,6.957 -48.06,9.359 -16.73,2.398 -33.71,3.598 -50.92,3.598 -30.12,0 -51.64,-3.957 -64.55,-11.879 -12.91,-7.918 -19.36,-20.52 -19.36,-37.801 0,-7.199 1.07,-13.68 3.22,-19.438 2.15,-5.761 6.22,-11.402 12.19,-16.921 5.98,-5.52 14.35,-11.039 25.11,-16.559 10.76,-5.52 24.5,-11.641 41.24,-18.359 24.38,-10.082 44.58,-19.2 60.6,-27.364 16.02,-8.16 28.57,-16.316 37.66,-24.476 9.08,-8.164 15.41,-16.922 19,-26.281 3.59,-9.36 5.38,-20.52 5.38,-33.481" /><path
         id="path46"
         style="fill:#50696d;fill-opacity:1;fill-rule:nonzero;stroke:none"
         d="m 3707.53,291.98 c 3.83,-42.242 17.57,-74.281 41.24,-96.121 23.67,-21.839 55.82,-32.761 96.46,-32.761 16.74,0 33.47,1.199 50.21,3.601 16.74,2.403 35.38,6.239 55.94,11.52 l 8.61,-34.559 c -20.08,-6.242 -39.92,-10.801 -59.53,-13.68 -19.6,-2.882 -37.77,-4.32 -54.51,-4.32 -28.21,0 -53.55,4.559 -76.02,13.68 -22.47,9.117 -41.48,21.719 -57.02,37.801 -15.54,16.078 -27.49,35.16 -35.86,57.238 -8.37,22.078 -12.55,46.32 -12.55,72.719 0,24.48 3.58,47.64 10.76,69.48 7.17,21.844 17.69,41.039 31.55,57.602 13.87,16.558 30.85,29.761 50.92,39.597 20.09,9.84 42.8,14.762 68.14,14.762 25.34,0 47.7,-4.922 67.06,-14.762 19.36,-9.836 35.5,-23.039 48.41,-39.597 12.91,-16.563 22.6,-35.758 29.05,-57.602 6.45,-21.84 9.68,-45 9.68,-69.48 V 291.98 Z m 229.51,36 c -2.87,37.438 -13.51,67.321 -31.92,89.637 -18.41,22.321 -44.82,33.481 -79.25,33.481 -34.42,0 -61.8,-11.16 -82.12,-33.481 -20.32,-22.316 -32.39,-52.199 -36.22,-89.637 h 229.51" /><path
         id="path48"
         style="fill:#50696d;fill-opacity:1;fill-rule:nonzero;stroke:none"
         d="m 4319.31,131.418 v 229.68 c 0,30.242 -6.69,52.441 -20.08,66.601 -13.39,14.16 -34.67,21.239 -63.84,21.239 -14.34,0 -28.56,-3.122 -42.67,-9.36 -14.1,-6.238 -26.54,-15.359 -37.29,-27.359 -10.76,-12 -19.48,-26.641 -26.18,-43.918 -6.7,-17.281 -10.04,-36.961 -10.04,-59.043 v -177.84 h -42.32 v 350.641 h 42.32 v -65.52 c 12.43,21.602 29.04,39 49.84,52.199 20.81,13.203 44.83,19.801 72.09,19.801 39.68,0 69.56,-11.402 89.65,-34.199 20.08,-22.801 30.12,-52.922 30.12,-90.36 V 131.418 h -41.6" /><path
         id="path50"
         style="fill:#50696d;fill-opacity:1;fill-rule:nonzero;stroke:none"
         d="m 4761.11,158.777 c 0,-49.437 -13.5,-88.0778 -40.52,-115.9176 -27.01,-27.8399 -68.02,-41.76174 -123,-41.76174 -8.61,0 -17.93,0.48047 -27.97,1.4414 C 4559.58,3.5 4549.3,4.81641 4538.78,6.5 c -10.52,1.67969 -20.68,3.8398 -30.48,6.4805 -9.8,2.6367 -19.01,5.6406 -27.62,9 l 8.61,32.3984 c 16.73,-4.8008 33.95,-8.8789 51.64,-12.2383 17.69,-3.3593 35.38,-5.0429 53.07,-5.0429 45.43,0 77.7,10.082 96.83,30.2421 19.12,20.1602 28.68,50.8792 28.68,92.1602 v 45.359 c -11.95,-22.562 -28.44,-39.839 -49.48,-51.839 -21.04,-12 -44.47,-18 -70.29,-18 -26.29,0 -48.77,4.796 -67.42,14.398 -18.64,9.602 -34.07,22.562 -46.26,38.883 -12.19,16.316 -21.15,35.16 -26.89,56.519 -5.74,21.36 -8.61,43.559 -8.61,66.598 0,23.043 2.87,45.242 8.61,66.602 5.74,21.359 14.58,40.199 26.53,56.519 11.96,16.32 27.38,29.402 46.26,39.238 18.89,9.84 41.49,14.762 67.78,14.762 25.82,0 49.25,-6.121 70.29,-18.359 21.04,-12.242 37.53,-29.641 49.48,-52.2 v 64.079 h 41.6 z m -41.6,152.641 c 0,43.199 -10.04,77.281 -30.12,102.242 -20.08,24.957 -48.77,37.438 -86.06,37.438 -19.61,0 -36.46,-3.598 -50.57,-10.797 -14.1,-7.203 -25.58,-17.164 -34.42,-29.883 -8.85,-12.719 -15.3,-27.477 -19.37,-44.277 -4.06,-16.801 -6.09,-35.039 -6.09,-54.723 0,-19.199 2.03,-37.32 6.09,-54.359 4.07,-17.039 10.52,-31.797 19.37,-44.282 8.84,-12.48 20.32,-22.32 34.42,-29.519 14.11,-7.199 30.96,-10.797 50.57,-10.797 37.29,0 65.98,12.355 86.06,37.078 20.08,24.723 30.12,58.68 30.12,101.879" /><path
         id="path52"
         style="fill:#50696d;fill-opacity:1;fill-rule:nonzero;stroke:none"
         d="m 4879.45,131.418 v 350.641 h 41.6 V 131.418 Z m 0,408.961 v 70.559 h 41.6 v -70.559 h -41.6" /><path
         id="path54"
         style="fill:#50696d;fill-opacity:1;fill-rule:nonzero;stroke:none"
         d="m 5285.39,131.418 v 229.68 c 0,30.242 -6.69,52.441 -20.08,66.601 -13.38,14.16 -34.67,21.239 -63.83,21.239 -14.34,0 -28.57,-3.122 -42.67,-9.36 -14.11,-6.238 -26.54,-15.359 -37.3,-27.359 -10.76,-12 -19.48,-26.641 -26.18,-43.918 -6.69,-17.281 -10.04,-36.961 -10.04,-59.043 v -177.84 h -42.31 v 350.641 h 42.31 v -65.52 c 12.44,21.602 29.05,39 49.85,52.199 20.8,13.203 44.82,19.801 72.08,19.801 39.69,0 69.57,-11.402 89.65,-34.199 20.08,-22.801 30.12,-52.922 30.12,-90.36 V 131.418 h -41.6" /><path
         id="path56"
         style="fill:#50696d;fill-opacity:1;fill-rule:nonzero;stroke:none"
         d="m 5461.83,291.98 c 3.83,-42.242 17.57,-74.281 41.24,-96.121 23.66,-21.839 55.82,-32.761 96.46,-32.761 16.74,0 33.47,1.199 50.21,3.601 16.74,2.403 35.38,6.239 55.94,11.52 l 8.61,-34.559 c -20.09,-6.242 -39.93,-10.801 -59.53,-13.68 -19.61,-2.882 -37.78,-4.32 -54.51,-4.32 -28.21,0 -53.55,4.559 -76.02,13.68 -22.48,9.117 -41.48,21.719 -57.02,37.801 -15.54,16.078 -27.5,35.16 -35.86,57.238 -8.37,22.078 -12.56,46.32 -12.56,72.719 0,24.48 3.59,47.64 10.76,69.48 7.18,21.844 17.69,41.039 31.56,57.602 13.87,16.558 30.84,29.761 50.92,39.597 20.09,9.84 42.8,14.762 68.14,14.762 25.34,0 47.69,-4.922 67.06,-14.762 19.36,-9.836 35.5,-23.039 48.41,-39.597 12.91,-16.563 22.59,-35.758 29.05,-57.602 6.45,-21.84 9.68,-45 9.68,-69.48 V 291.98 Z m 229.51,36 c -2.88,37.438 -13.51,67.321 -31.92,89.637 -18.41,22.321 -44.83,33.481 -79.25,33.481 -34.43,0 -61.8,-11.16 -82.12,-33.481 -20.32,-22.316 -32.39,-52.199 -36.22,-89.637 h 229.51" /><path
         id="path58"
         style="fill:#50696d;fill-opacity:1;fill-rule:nonzero;stroke:none"
         d="m 5847.68,291.98 c 3.83,-42.242 17.58,-74.281 41.25,-96.121 23.66,-21.839 55.82,-32.761 96.46,-32.761 16.74,0 33.47,1.199 50.2,3.601 16.74,2.403 35.39,6.239 55.95,11.52 l 8.6,-34.559 c -20.08,-6.242 -39.92,-10.801 -59.52,-13.68 -19.61,-2.882 -37.78,-4.32 -54.51,-4.32 -28.22,0 -53.55,4.559 -76.02,13.68 -22.48,9.117 -41.48,21.719 -57.02,37.801 -15.54,16.078 -27.5,35.16 -35.87,57.238 -8.36,22.078 -12.55,46.32 -12.55,72.719 0,24.48 3.59,47.64 10.76,69.48 7.18,21.844 17.69,41.039 31.56,57.602 13.87,16.558 30.84,29.761 50.92,39.597 20.08,9.84 42.79,14.762 68.14,14.762 25.34,0 47.69,-4.922 67.06,-14.762 19.36,-9.836 35.5,-23.039 48.41,-39.597 12.91,-16.563 22.59,-35.758 29.04,-57.602 6.46,-21.84 9.69,-45 9.69,-69.48 V 291.98 Z m 229.51,36 c -2.87,37.438 -13.5,67.321 -31.91,89.637 -18.41,22.321 -44.83,33.481 -79.25,33.481 -34.43,0 -61.8,-11.16 -82.12,-33.481 -20.32,-22.316 -32.4,-52.199 -36.23,-89.637 h 229.51" /><path
         id="path60"
         style="fill:#50696d;fill-opacity:1;fill-rule:nonzero;stroke:none"
         d="m 6387.75,447.5 c -17.7,0 -34.43,-3.844 -50.21,-11.52 -15.78,-7.679 -29.4,-18 -40.88,-30.96 -11.48,-12.961 -20.56,-27.961 -27.25,-45 -6.7,-17.04 -10.04,-34.68 -10.04,-52.922 v -175.68 h -42.32 v 350.641 h 42.32 V 407.18 c 5.74,11.039 13.02,21.359 21.87,30.961 8.85,9.597 19.01,18.238 30.48,25.918 11.48,7.679 23.67,13.679 36.58,18 12.91,4.32 26.06,6.48 39.45,6.48 V 447.5" /><path
         id="path62"
         style="fill:#50696d;fill-opacity:1;fill-rule:nonzero;stroke:none"
         d="m 6463.05,131.418 v 350.641 h 41.6 V 131.418 Z m 0,408.961 v 70.559 h 41.6 v -70.559 h -41.6" /><path
         id="path64"
         style="fill:#50696d;fill-opacity:1;fill-rule:nonzero;stroke:none"
         d="m 6868.99,131.418 v 229.68 c 0,30.242 -6.69,52.441 -20.08,66.601 -13.39,14.16 -34.66,21.239 -63.83,21.239 -14.34,0 -28.57,-3.122 -42.67,-9.36 -14.11,-6.238 -26.54,-15.359 -37.3,-27.359 -10.75,-12 -19.48,-26.641 -26.18,-43.918 -6.69,-17.281 -10.04,-36.961 -10.04,-59.043 v -177.84 h -42.31 v 350.641 h 42.31 v -65.52 c 12.44,21.602 29.05,39 49.85,52.199 20.8,13.203 44.83,19.801 72.08,19.801 39.68,0 69.57,-11.402 89.65,-34.199 20.08,-22.801 30.12,-52.922 30.12,-90.36 V 131.418 h -41.6" /><path
         id="path66"
         style="fill:#50696d;fill-opacity:1;fill-rule:nonzero;stroke:none"
         d="m 7310.8,158.777 c 0,-49.437 -13.51,-88.0778 -40.53,-115.9176 -27.01,-27.8399 -68.01,-41.76174 -123,-41.76174 -8.61,0 -17.93,0.48047 -27.97,1.4414 C 7109.26,3.5 7098.98,4.81641 7088.46,6.5 c -10.51,1.67969 -20.68,3.8398 -30.48,6.4805 -9.8,2.6367 -19.01,5.6406 -27.61,9 l 8.6,32.3984 c 16.74,-4.8008 33.96,-8.8789 51.64,-12.2383 17.69,-3.3593 35.39,-5.0429 53.08,-5.0429 45.42,0 77.7,10.082 96.82,30.2421 19.12,20.1602 28.69,50.8792 28.69,92.1602 v 45.359 c -11.95,-22.562 -28.45,-39.839 -49.49,-51.839 -21.04,-12 -44.47,-18 -70.28,-18 -26.3,0 -48.77,4.796 -67.42,14.398 -18.65,9.602 -34.07,22.562 -46.26,38.883 -12.2,16.316 -21.16,35.16 -26.9,56.519 -5.74,21.36 -8.61,43.559 -8.61,66.598 0,23.043 2.87,45.242 8.61,66.602 5.74,21.359 14.58,40.199 26.54,56.519 11.95,16.32 27.37,29.402 46.26,39.238 18.89,9.84 41.48,14.762 67.78,14.762 25.81,0 49.24,-6.121 70.28,-18.359 21.04,-12.242 37.54,-29.641 49.49,-52.2 v 64.079 h 41.6 z m -41.6,152.641 c 0,43.199 -10.04,77.281 -30.12,102.242 -20.09,24.957 -48.77,37.438 -86.07,37.438 -19.6,0 -36.46,-3.598 -50.56,-10.797 -14.11,-7.203 -25.58,-17.164 -34.43,-29.883 -8.85,-12.719 -15.3,-27.477 -19.36,-44.277 -4.07,-16.801 -6.1,-35.039 -6.1,-54.723 0,-19.199 2.03,-37.32 6.1,-54.359 4.06,-17.039 10.51,-31.797 19.36,-44.282 8.85,-12.48 20.32,-22.32 34.43,-29.519 14.1,-7.199 30.96,-10.797 50.56,-10.797 37.3,0 65.98,12.355 86.07,37.078 20.08,24.723 30.12,58.68 30.12,101.879" /></g></g></svg>
